<mxfile host="app.diagrams.net" modified="2022-01-07T08:42:45.873Z" agent="5.0 (Macintosh; Intel Mac OS X 10_15_7) AppleWebKit/537.36 (KHTML, like Gecko) Chrome/96.0.4664.110 Safari/537.36" etag="ZTZU9EuQKDdsTfhEF2vn" version="16.1.0" type="github" pages="2">
  <diagram id="vN44pPGpKL5CAgNyh5uW" name="Page-1">
    <mxGraphModel dx="1298" dy="834" grid="1" gridSize="10" guides="1" tooltips="1" connect="1" arrows="1" fold="1" page="1" pageScale="1" pageWidth="850" pageHeight="1100" math="0" shadow="0">
      <root>
        <mxCell id="0" />
        <mxCell id="1" parent="0" />
        <mxCell id="Aco2tTN7l1n8Q2X__Isy-1" value="API" style="rounded=0;whiteSpace=wrap;html=1;" parent="1" vertex="1">
          <mxGeometry x="120" y="560" width="360" height="60" as="geometry" />
        </mxCell>
        <mxCell id="Aco2tTN7l1n8Q2X__Isy-3" value="app" style="rounded=0;whiteSpace=wrap;html=1;" parent="1" vertex="1">
          <mxGeometry x="120" y="370" width="120" height="60" as="geometry" />
        </mxCell>
        <mxCell id="Aco2tTN7l1n8Q2X__Isy-6" style="edgeStyle=orthogonalEdgeStyle;rounded=0;orthogonalLoop=1;jettySize=auto;html=1;" parent="1" source="Aco2tTN7l1n8Q2X__Isy-4" target="Aco2tTN7l1n8Q2X__Isy-7" edge="1">
          <mxGeometry relative="1" as="geometry">
            <mxPoint x="380" y="880" as="targetPoint" />
          </mxGeometry>
        </mxCell>
        <mxCell id="Aco2tTN7l1n8Q2X__Isy-4" value="handler" style="rounded=0;whiteSpace=wrap;html=1;" parent="1" vertex="1">
          <mxGeometry x="120" y="680" width="520" height="60" as="geometry" />
        </mxCell>
        <mxCell id="Aco2tTN7l1n8Q2X__Isy-7" value="much more context" style="rounded=0;whiteSpace=wrap;html=1;" parent="1" vertex="1">
          <mxGeometry x="320" y="850" width="120" height="60" as="geometry" />
        </mxCell>
        <mxCell id="Aco2tTN7l1n8Q2X__Isy-8" value="app" style="rounded=0;whiteSpace=wrap;html=1;" parent="1" vertex="1">
          <mxGeometry x="560" y="420" width="120" height="60" as="geometry" />
        </mxCell>
      </root>
    </mxGraphModel>
  </diagram>
  <diagram id="YRz4pqHAss0ti0MT5Xph" name="icon">
    <mxGraphModel dx="702" dy="451" grid="1" gridSize="10" guides="1" tooltips="1" connect="1" arrows="1" fold="1" page="1" pageScale="1" pageWidth="850" pageHeight="1100" math="0" shadow="0">
      <root>
        <mxCell id="ttO_lIep0B7C0PXn7Fjo-0" />
        <mxCell id="ttO_lIep0B7C0PXn7Fjo-1" parent="ttO_lIep0B7C0PXn7Fjo-0" />
        <mxCell id="ttO_lIep0B7C0PXn7Fjo-4" value="" style="ellipse;whiteSpace=wrap;html=1;aspect=fixed;fillColor=#1EB6FF;fontColor=#ffffff;strokeColor=#006EAF;" vertex="1" parent="ttO_lIep0B7C0PXn7Fjo-1">
          <mxGeometry x="175" y="240" width="20" height="20" as="geometry" />
        </mxCell>
        <mxCell id="ttO_lIep0B7C0PXn7Fjo-6" value="" style="rounded=1;whiteSpace=wrap;html=1;fillColor=#FF7A21;rotation=314;fontColor=#ffffff;strokeColor=none;" vertex="1" parent="ttO_lIep0B7C0PXn7Fjo-1">
          <mxGeometry x="178.58" y="247.55" width="11.72" height="6" as="geometry" />
        </mxCell>
        <mxCell id="ttO_lIep0B7C0PXn7Fjo-8" value="" style="rounded=0;whiteSpace=wrap;html=1;fillColor=#00CC52;rotation=44;strokeColor=none;shadow=0;sketch=0;glass=0;" vertex="1" parent="ttO_lIep0B7C0PXn7Fjo-1">
          <mxGeometry x="185.04" y="254.54999999999998" width="16.44" height="6" as="geometry" />
        </mxCell>
      </root>
    </mxGraphModel>
  </diagram>
</mxfile>
